<svg width="32" height="32" viewBox="0 0 32 32" fill="none" xmlns="http://www.w3.org/2000/svg">
<rect x="0.5" y="0.5" width="31" height="31" rx="3.5" fill="white" stroke="#2F80ED"/>
<g clip-path="url(#clip0_122_5273)">
<path d="M25 9C23.89 8.65 22.67 8.5 21.5 8.5C19.55 8.5 17.45 8.9 16 10C14.55 8.9 12.45 8.5 10.5 8.5C8.55 8.5 6.45 8.9 5 10V24.65C5 24.9 5.25 25.15 5.5 25.15C5.6 25.15 5.65 25.1 5.75 25.1C7.1 24.45 9.05 24 10.5 24C12.45 24 14.55 24.4 16 25.5C17.35 24.65 19.8 24 21.5 24C23.15 24 24.85 24.3 26.25 25.05C26.35 25.1 26.4 25.1 26.5 25.1C26.75 25.1 27 24.85 27 24.6V10C26.4 9.55 25.75 9.25 25 9ZM25 22.5C23.9 22.15 22.7 22 21.5 22C19.8 22 17.35 22.65 16 23.5V12C17.35 11.15 19.8 10.5 21.5 10.5C22.7 10.5 23.9 10.65 25 11V22.5Z" fill="#2F80ED"/>
<path d="M21.5 14.5C22.38 14.5 23.23 14.59 24 14.76V13.24C23.21 13.09 22.36 13 21.5 13C19.8 13 18.26 13.29 17 13.83V15.49C18.13 14.85 19.7 14.5 21.5 14.5Z" fill="#2F80ED"/>
<path d="M17 16.49V18.15C18.13 17.51 19.7 17.16 21.5 17.16C22.38 17.16 23.23 17.25 24 17.42V15.9C23.21 15.75 22.36 15.66 21.5 15.66C19.8 15.66 18.26 15.96 17 16.49Z" fill="#2F80ED"/>
<path d="M21.5 18.33C19.8 18.33 18.26 18.62 17 19.16V20.82C18.13 20.18 19.7 19.83 21.5 19.83C22.38 19.83 23.23 19.92 24 20.09V18.57C23.21 18.41 22.36 18.33 21.5 18.33Z" fill="#2F80ED"/>
</g>
<defs>
<clipPath id="clip0_122_5273">
<rect width="24" height="24" fill="white" transform="translate(4 4)"/>
</clipPath>
</defs>
</svg>
